<svg width="22" height="22" viewBox="0 0 22 22" fill="none" xmlns="http://www.w3.org/2000/svg">
  <path d="M14.75 9.25C14.75 10.078 14.302 10.75 13.75 10.75C13.198 10.75 12.75 10.078 12.75 9.25C12.75 8.422 13.198 7.75 13.75 7.75C14.302 7.75 14.75 8.422 14.75 9.25Z" fill="black"/>
  <path d="M7.75 10.75C8.30228 10.75 8.75 10.0784 8.75 9.25C8.75 8.42157 8.30228 7.75 7.75 7.75C7.19772 7.75 6.75 8.42157 6.75 9.25C6.75 10.0784 7.19772 10.75 7.75 10.75Z" fill="black"/>
  <path d="M20.75 11.05C20.75 5.363 16.273 0.75 10.75 0.75C5.227 0.75 0.75 5.362 0.75 11.05V18.473C0.75 19.795 2.101 20.655 3.25 20.064C3.70425 19.8296 4.21366 19.7231 4.72376 19.7559C5.23386 19.7887 5.72546 19.9594 6.146 20.25C6.61737 20.576 7.17689 20.7506 7.75 20.7506C8.32311 20.7506 8.88263 20.576 9.354 20.25L9.707 20.008C10.0138 19.7969 10.3775 19.6838 10.75 19.6838C11.1225 19.6838 11.4862 19.7969 11.793 20.008L12.146 20.25C12.6174 20.576 13.1769 20.7506 13.75 20.7506C14.3231 20.7506 14.8826 20.576 15.354 20.25C15.7746 19.9593 16.2664 19.7884 16.7767 19.7556C17.287 19.7228 17.7966 19.8294 18.251 20.064C19.399 20.655 20.75 19.795 20.75 18.473V14.762" stroke="black" stroke-width="1.5" stroke-linecap="round"/>
</svg>
