<?xml version="1.0" encoding="UTF-8" standalone="no"?>
<!DOCTYPE svg PUBLIC "-//W3C//DTD SVG 1.1//EN" "http://www.w3.org/Graphics/SVG/1.1/DTD/svg11.dtd">
<!-- Created with Vectornator (http://vectornator.io/) -->
<svg height="645.1854961753133pt" stroke-miterlimit="10" style="fill-rule:nonzero;clip-rule:evenodd;stroke-linecap:round;stroke-linejoin:round;" version="1.1" viewBox="0 0 817.753 645.185" width="817.7525840527557pt" xml:space="preserve" xmlns="http://www.w3.org/2000/svg" xmlns:xlink="http://www.w3.org/1999/xlink">
<defs/>
<clipPath id="ArtboardFrame">
<rect height="645.185" width="817.753" x="0" y="0"/>
</clipPath>
<g clip-path="url(#ArtboardFrame)" id="Untitled">
<path d="M491.1 560.437C491.1 486.31 491.1 412.683 491.1 338.437C501.185 338.437 511.159 339.052 521.016 338.246C529.126 337.582 533.294 339.954 536.193 347.899C545.026 372.11 554.737 396.001 564.103 420.018C573.236 443.439 582.361 466.863 591.523 490.273C591.664 490.632 592.241 490.819 593.061 491.405C593.061 440.278 593.061 389.596 593.061 338.676C608.483 338.676 623.551 338.676 638.861 338.676C638.861 440.467 638.861 542.182 638.861 644.436C626.589 644.436 614.323 644.483 602.059 644.338C601.161 644.327 599.831 643.101 599.455 642.144C590.274 618.749 581.247 595.293 572.079 571.893C565.536 555.192 558.759 538.583 552.216 521.883C547.72 510.409 543.455 498.844 539.056 487.331C538.731 486.482 538.158 485.729 537.236 484.121C537.236 537.949 537.236 590.915 537.236 644.159C521.799 644.159 506.73 644.159 491.1 644.159C491.1 616.45 491.1 588.694 491.1 560.437Z" fill="#000000" fill-rule="nonzero" opacity="1" stroke="none"/>
<path d="M339.1 482.437C339.1 530.097 339.066 577.257 339.124 624.416C339.139 636.327 330.454 644.25 319.171 644.334C282.179 644.61 245.183 644.562 208.189 644.36C197.295 644.301 188.001 635.899 188.02 623.985C188.167 535.665 188.177 447.344 188.011 359.025C187.988 346.799 197.438 338.621 208.574 338.539C245.234 338.269 281.897 338.274 318.556 338.537C329.612 338.616 339.311 346.647 339.214 359.456C338.906 400.281 339.1 441.11 339.1 482.437M292.1 492.937C292.1 455.177 292.1 417.417 292.1 379.725C273.123 379.725 254.718 379.725 236.385 379.725C236.385 454.414 236.385 528.815 236.385 603.149C255.077 603.149 273.482 603.149 292.1 603.149C292.1 566.554 292.1 530.245 292.1 492.937Z" fill="#000000" fill-rule="nonzero" opacity="1" stroke="none"/>
<path d="M0.100015 572.437C0.100015 494.305 0.100015 416.673 0.100015 338.437C1.87495 338.437 3.46876 338.437 5.06254 338.437C43.7211 338.437 82.3806 338.282 121.038 338.513C136.572 338.606 143.871 347.214 143.966 360.938C144.308 409.926 144.256 458.917 143.999 507.906C143.927 521.508 135.915 530.397 121.073 530.425C96.9356 530.47 72.7979 530.437 48.2682 530.437C48.2682 568.401 48.2682 606.135 48.2682 644.153C32.1426 644.153 16.4057 644.153 0.100015 644.153C0.100015 620.456 0.100015 596.697 0.100015 572.437M73.6 379.437C65.1687 379.437 56.7374 379.437 48.3858 379.437C48.3858 416.414 48.3858 452.816 48.3858 489.15C64.4108 489.15 80.1484 489.15 95.8142 489.15C95.8142 452.46 95.8142 416.059 95.8142 379.437C88.5533 379.437 81.5766 379.437 73.6 379.437Z" fill="#000000" fill-rule="nonzero" opacity="1" stroke="none"/>
<path d="M206.1 3.60197C206.1 49.0488 206.1 94.0086 206.1 139.202C231.16 139.202 255.897 139.202 281.032 139.202C281.032 93.041 281.032 46.9705 281.032 0.669505C291.165 0.669505 300.903 0.669505 310.871 0.669505C310.871 106.172 310.871 211.571 310.871 317.204C301.037 317.204 291.299 317.204 281.163 317.204C281.163 266.369 281.163 215.632 281.163 164.667C256.03 164.667 231.293 164.667 206.159 164.667C206.159 215.51 206.159 266.247 206.159 317.209C196.359 317.209 186.954 317.209 177.324 317.209C177.324 211.693 177.324 106.294 177.324 0.438807C186.208 0.438807 194.989 0.369982 203.765 0.555201C204.561 0.571997 205.322 2.22291 206.1 3.60197Z" fill="#000000" fill-rule="nonzero" opacity="1" stroke="none"/>
<path d="M709.963 0.43727C714.412-0.410993 714.128 2.15459 714.126 4.79551C714.089 47.286 714.1 89.7766 714.1 132.267C714.1 133.835 714.1 135.403 714.1 136.97C714.504 137.09 714.907 137.21 715.311 137.331C736.622 91.7597 757.933 46.1887 779.258 0.587576C789.847 0.587576 800.312 0.587576 811.39 0.587576C810.875 2.5148 810.683 4.26615 809.964 5.76405C801.057 24.3088 792.013 42.7879 783.125 61.3415C772.717 83.069 762.438 104.858 752.078 126.609C748.831 133.427 745.611 140.262 742.176 146.985C740.126 150.997 740.081 154.723 742.106 158.767C749.09 172.719 756.026 186.697 762.799 200.753C774.307 224.632 785.696 248.569 797.097 272.5C804.127 287.255 811.088 302.042 818.374 317.437C807.995 317.437 798.081 317.509 788.171 317.332C787.097 317.313 785.57 316.085 785.06 315.028C774.591 293.326 764.278 271.548 753.849 249.827C748.699 239.102 743.299 228.497 738.15 217.771C731.063 203.005 724.113 188.173 717.08 173.381C716.479 172.118 715.694 170.943 714.336 168.582C714.336 218.858 714.336 267.835 714.336 317.125C704.536 317.125 695.13 317.125 685.411 317.125C685.411 211.877 685.411 106.488 685.411 0.437262C693.302 0.437262 701.389 0.437262 709.963 0.43727Z" fill="#000000" fill-rule="nonzero" opacity="1" stroke="none"/>
<path d="M769.1 515.437C769.1 558.578 769.1 601.218 769.1 644.148C753.152 644.148 737.414 644.148 721.283 644.148C721.283 556.154 721.283 468.088 721.283 379.624C705.161 379.624 689.419 379.624 673.391 379.624C673.391 365.825 673.391 352.42 673.391 338.725C721.052 338.725 768.787 338.725 816.811 338.725C816.811 352.053 816.811 365.458 816.811 379.264C801.147 379.264 785.405 379.264 769.1 379.264C769.1 424.753 769.1 469.845 769.1 515.437Z" fill="#000000" fill-rule="nonzero" opacity="1" stroke="none"/>
<path d="M1.10001 184.437C1.10001 130.114 1.2548 76.289 0.981973 22.4666C0.920297 10.2985 12.1895-0.172731 23.0004 0.153906C50.9698 0.99898 78.9861 0.724657 106.975 0.305609C119.373 0.11999 128.677 9.87475 128.925 20.9555C129.482 45.9156 129.1 70.8968 129.1 96.153C119.476 96.153 110.071 96.153 100.267 96.153C100.267 72.8081 100.267 49.4032 100.267 25.7189C76.8032 25.7189 53.7338 25.7189 30.3816 25.7189C30.3816 114.394 30.3816 203.122 30.3816 292.143C53.3718 292.143 76.4414 292.143 99.9084 292.143C99.9084 266.833 99.9084 241.429 99.9084 215.732C109.703 215.732 119.108 215.732 128.874 215.732C128.945 217.059 129.089 218.494 129.09 219.929C129.104 245.091 129.15 270.253 129.073 295.415C129.046 304.119 123.365 314.36 113.265 316.742C111.546 317.147 109.747 317.406 107.985 317.409C79.4899 317.449 50.995 317.437 22.5001 317.437C10.1147 317.437 1.11073 308.412 1.10551 295.917C1.09013 258.923 1.10001 221.93 1.10001 184.437Z" fill="#000000" fill-rule="nonzero" opacity="1" stroke="none"/>
<path d="M538.1 182.437C538.1 219.243 538.1 255.549 538.1 292.146C561.377 292.146 584.447 292.146 607.914 292.146C607.914 266.828 607.914 241.423 607.914 215.729C617.708 215.729 627.114 215.729 636.863 215.729C636.936 216.56 637.089 217.498 637.089 218.436C637.103 244.098 637.152 269.761 637.071 295.422C637.044 304.143 631.37 314.347 621.26 316.747C619.541 317.155 617.741 317.406 615.977 317.409C587.316 317.449 558.654 317.437 529.993 317.437C518.304 317.437 509.155 308.276 509.112 296.409C509.061 282.245 509.1 268.081 509.1 253.917C509.1 176.93 509.239 99.9434 508.959 22.9581C508.914 10.5966 519.8-0.242261 531.51 0.142981C559.308 1.0575 587.161 0.724768 614.983 0.306055C627.374 0.119574 636.679 9.88054 636.926 20.9638C637.48 45.9234 637.1 70.9036 637.1 96.156C627.47 96.156 618.065 96.156 608.261 96.156C608.261 72.802 608.261 49.397 608.261 25.7159C584.797 25.7159 561.728 25.7159 538.1 25.7159C538.1 77.7602 538.1 129.849 538.1 182.437Z" fill="#000000" fill-rule="nonzero" opacity="1" stroke="none"/>
<path d="M439.1 490.437C439.1 541.912 439.1 592.886 439.1 644.149C423.149 644.149 407.411 644.149 391.385 644.149C391.385 542.481 391.385 440.748 391.385 338.726C407.051 338.726 422.789 338.726 439.1 338.726C439.1 389.085 439.1 439.511 439.1 490.437Z" fill="#000000" fill-rule="nonzero" opacity="1" stroke="none"/>
<path d="M407.102 25.4373C401.291 25.4373 395.981 25.4373 390.386 25.4373C390.386 64.7256 390.386 103.794 390.386 143.261C412.719 143.261 435.125 143.261 457.814 143.261C457.814 151.724 457.814 159.797 457.814 168.27C435.472 168.27 413.066 168.27 390.381 168.27C390.381 209.735 390.381 250.803 390.381 292.27C415.394 292.27 440.467 292.27 465.818 292.27C465.818 300.732 465.818 308.805 465.818 317.159C431.13 317.159 396.394 317.159 361.379 317.159C361.379 211.807 361.379 106.412 361.379 0.726767C395.715 0.726767 430.117 0.726767 464.81 0.726767C464.81 8.71548 464.81 16.7881 464.81 25.4373C445.791 25.4373 426.696 25.4373 407.102 25.4373Z" fill="#000000" fill-rule="nonzero" opacity="1" stroke="none"/>
</g>
</svg>
