<svg xmlns="http://www.w3.org/2000/svg" xmlns:svg="http://www.w3.org/2000/svg" width="193.7525mm" height="162.71564mm" viewBox="0 0 193.7525 162.71564" version="1.1" id="svg1">
    <defs id="defs1">
        <clipPath clipPathUnits="userSpaceOnUse" id="clipPath6">
            <path d="M 0,283.46 H 283.46 V 0 H 0 Z" transform="translate(-88.9297,-175.55081)" id="path6"/>
        </clipPath>
        <clipPath clipPathUnits="userSpaceOnUse" id="clipPath8">
            <path d="M 0,283.46 H 283.46 V 0 H 0 Z" transform="translate(-109.20021,-175.5513)" id="path8"/>
        </clipPath>
    </defs>
    <g id="layer1" transform="translate(-8.0569897,-51.901006)">
        <g id="g2" aria-label="CHECK&#10;POINT" transform="matrix(1.7960414,0,0,1.7960414,65.455962,103.5293)" style="display:inline">
            <path id="path1" d="m 13.73338,-2.0273516 c 0,0.5947266 -0.196289,1.08398441 -0.585938,1.46484379 -0.383789,0.375 -0.875976,0.5624999975 -1.476562,0.5624999975 H 4.3115047 c -0.5947266,0 -1.0839844,-0.1874999975 -1.4648438,-0.5624999975 -0.375,-0.38085938 -0.5625,-0.87011719 -0.5625,-1.46484379 V -26.566414 c 0,-0.591797 0.1875,-1.078125 0.5625,-1.453125 0.3808594,-0.380859 0.8701172,-0.574219 1.4648438,-0.574219 H 11.67088 c 0.600586,0 1.092773,0.19336 1.476562,0.574219 0.389649,0.375 0.585938,0.861328 0.585938,1.453125 v 6.65625 h -2.554688 v -6.433594 H 4.8271297 v 24.0937502 h 6.3515623 v -7.03125 H 13.73338 Z M 30.154278,-7.8125e-6 H 27.611309 V -13.734383 H 20.732403 V -7.8125e-6 H 18.189434 V -28.593758 h 2.542969 v 12.574219 h 6.878906 v -12.574219 h 2.542969 z m 13.959961,0 H 34.72752 V -28.593758 h 9.28125 v 2.25 h -6.738281 v 10.664063 h 6.128906 v 2.285156 h -6.128906 v 11.1445312 h 6.84375 z M 59.536114,-2.0273516 c 0,0.5947266 -0.196289,1.08398441 -0.585937,1.46484379 -0.383789,0.375 -0.875977,0.5624999975 -1.476563,0.5624999975 h -7.359375 c -0.594726,0 -1.083984,-0.1874999975 -1.464844,-0.5624999975 -0.375,-0.38085938 -0.5625,-0.87011719 -0.5625,-1.46484379 V -26.566414 c 0,-0.591797 0.1875,-1.078125 0.5625,-1.453125 0.38086,-0.380859 0.870118,-0.574219 1.464844,-0.574219 h 7.359375 c 0.600586,0 1.092774,0.19336 1.476563,0.574219 0.389648,0.375 0.585937,0.861328 0.585937,1.453125 v 6.65625 h -2.554687 v -6.433594 h -6.351563 v 24.0937502 h 6.351563 v -7.03125 h 2.554687 z M 75.918927,-7.8125e-6 H 73.118145 L 66.532208,-13.734383 V -7.8125e-6 H 63.989239 V -28.593758 h 2.542969 v 12.84375 l 5.988281,-12.84375 h 2.753906 v 0.164063 l -6.46875,13.617187 z m 0,0" style="fill:#231200;fill-opacity:1;fill-rule:nonzero;stroke:none"/>
            <path id="path2" d="m 15.939434,16.690422 c 0,0.84375 -0.228515,1.5 -0.679687,1.96875 -0.445313,0.46289 -1.089844,0.691406 -1.933594,0.691406 H 6.4003719 V 29.709953 H 2.1347469 V 1.1279219 H 13.326153 c 1.740235,0 2.613281,0.8730468 2.613281,2.6132812 z M 11.638653,4.7841719 H 6.4003719 V 15.682609 H 11.638653 Z M 33.526348,27.084953 c 0,0.852539 -0.228515,1.505859 -0.679687,1.957031 -0.445313,0.445313 -1.078125,0.667969 -1.898438,0.667969 h -9.28125 c -1.696289,0 -2.542968,-0.873047 -2.542968,-2.625 V 3.7412031 c 0,-1.7402344 0.846679,-2.6132812 2.542968,-2.6132812 h 9.28125 c 0.820313,0 1.453125,0.2285156 1.898438,0.6796875 0.451172,0.4453125 0.679687,1.0898437 0.679687,1.9335937 z M 29.260723,4.7841719 H 23.38963 V 26.041984 h 5.871093 z M 37.191388,29.709953 V 1.1279219 h 4.265625 V 29.709953 Z m 18.673828,0 -6.84375,-18 c 0.02344,0.251953 0.06152,0.500977 0.117187,0.75 0.04687,0.205078 0.08203,0.421875 0.105469,0.65625 0.02344,0.234375 0.03516,0.454102 0.03516,0.65625 v 15.9375 H 45.130841 V 1.1279219 h 3.738281 l 6.84375,17.6132811 c -0.04687,-0.240234 -0.09375,-0.486328 -0.140625,-0.738281 -0.05566,-0.202149 -0.09082,-0.421875 -0.105469,-0.65625 -0.0088,-0.240235 -0.01172,-0.459961 -0.01172,-0.65625 V 1.1279219 h 4.160157 V 29.709953 Z M 70.91502,4.9013594 V 29.709953 H 66.649395 V 4.9013594 H 61.973614 V 1.1279219 h 13.652344 v 3.7734375 z m 0,0" style="fill:#231200;fill-opacity:1;fill-rule:nonzero;stroke:none"/>
        </g>
        <path id="path4" d="M 65.722498,51.901006 V 185.03797 Z" style="display:inline;fill:none;stroke:#231200;stroke-width:2.33485;stroke-linecap:butt;stroke-linejoin:miter;stroke-miterlimit:10;stroke-dasharray:none;stroke-opacity:1"/>
        <path id="path5" d="m 0,0 c 0,8.676 7.033,15.71 15.709,15.71 8.676,0 15.709,-7.034 15.709,-15.71 0,-8.676 -7.033,-15.709 -15.709,-15.709 C 7.033,-15.709 0,-8.676 0,0 Z" style="display:inline;fill:none;stroke:#231200;stroke-width:1.3;stroke-linecap:butt;stroke-linejoin:miter;stroke-miterlimit:10;stroke-dasharray:none;stroke-opacity:1" transform="matrix(1.7960414,0,0,-1.7960414,9.2244166,185.2352)" clip-path="url(#clipPath6)"/>
        <path id="path7" d="m 0,0 c 0,-2.519 -2.042,-4.561 -4.561,-4.561 -2.52,0 -4.562,2.042 -4.562,4.561 0,2.52 2.042,4.561 4.562,4.561 C -2.042,4.561 0,2.52 0,0" style="display:inline;fill:#231200;fill-opacity:1;fill-rule:nonzero;stroke:#231200;stroke-width:1.3;stroke-linecap:butt;stroke-linejoin:miter;stroke-miterlimit:10;stroke-dasharray:none;stroke-opacity:1" transform="matrix(1.7960414,0,0,-1.7960414,45.631083,185.23428)" clip-path="url(#clipPath8)"/>
    </g>
</svg>